<?xml version="1.0" encoding="utf-8"?>
<!-- Generator: Adobe Illustrator 27.6.1, SVG Export Plug-In . SVG Version: 6.00 Build 0)  -->
<svg version="1.1" id="Layer_1" xmlns="http://www.w3.org/2000/svg" xmlns:xlink="http://www.w3.org/1999/xlink" x="0px" y="0px"
	 viewBox="0 0 194 78" style="enable-background:new 0 0 194 78;" xml:space="preserve">
<style type="text/css">
	.st0{clip-path:url(#SVGID_00000119102992430514924280000013497016099256506034_);}
	.st1{clip-path:url(#SVGID_00000147907494751240710540000010481435712136080048_);}
	.st2{clip-path:url(#SVGID_00000147907494751240710540000010481435712136080048_);fill:#F26924;}
	.st3{clip-path:url(#SVGID_00000147907494751240710540000010481435712136080048_);fill:#FDB714;}
	.st4{clip-path:url(#SVGID_00000147907494751240710540000010481435712136080048_);fill:#00A176;}
</style>
<g id="Litera_Horizontal_Color_rgb_00000013910896498600494440000008938532653600854408_">
	<g>
		<defs>
			<rect id="SVGID_1_" x="2.9" y="19.5" width="188.1" height="34.9"/>
		</defs>
		<clipPath id="SVGID_00000178891288721799430630000010921402548500148405_">
			<use xlink:href="#SVGID_1_"  style="overflow:visible;"/>
		</clipPath>
		<g style="clip-path:url(#SVGID_00000178891288721799430630000010921402548500148405_);">
			<defs>
				<rect id="SVGID_00000141414734136391727830000006376282999969537201_" x="2.9" y="19.5" width="188.1" height="34.9"/>
			</defs>
			<clipPath id="SVGID_00000181791577419567066180000000066270322642406305_">
				<use xlink:href="#SVGID_00000141414734136391727830000006376282999969537201_"  style="overflow:visible;"/>
			</clipPath>
			<path style="clip-path:url(#SVGID_00000181791577419567066180000000066270322642406305_);" d="M65.2,27.3c0-0.4,0.3-0.8,0.8-0.8
				h3.7c0.4,0,0.8,0.4,0.8,0.8v22.4h10.2c0.4,0,0.8,0.4,0.8,0.8v3.3c0,0.4-0.3,0.8-0.8,0.8H66c-0.4,0-0.8-0.4-0.8-0.8V27.3z"/>
			<path style="clip-path:url(#SVGID_00000181791577419567066180000000066270322642406305_);" d="M85.4,27.3c0-0.4,0.4-0.8,0.8-0.8
				h3.7c0.4,0,0.8,0.4,0.8,0.8v26.5c0,0.4-0.4,0.8-0.8,0.8h-3.7c-0.4,0-0.8-0.4-0.8-0.8V27.3z"/>
			<path style="clip-path:url(#SVGID_00000181791577419567066180000000066270322642406305_);" d="M101.7,31.3h-6.1
				c-0.4,0-0.8-0.4-0.8-0.8v-3.3c0-0.4,0.3-0.8,0.8-0.8H113c0.4,0,0.8,0.4,0.8,0.8v3.3c0,0.4-0.3,0.8-0.8,0.8h-6.1v22.4
				c0,0.4-0.4,0.8-0.8,0.8h-3.7c-0.4,0-0.8-0.4-0.8-0.8V31.3z"/>
			<path style="clip-path:url(#SVGID_00000181791577419567066180000000066270322642406305_);" d="M117.9,27.3c0-0.4,0.3-0.8,0.8-0.8
				H135c0.4,0,0.8,0.4,0.8,0.8v3.3c0,0.4-0.3,0.8-0.8,0.8h-11.8v6.6h9.9c0.4,0,0.8,0.4,0.8,0.8v3.3c0,0.4-0.4,0.8-0.8,0.8h-9.9v7
				H135c0.4,0,0.8,0.4,0.8,0.8v3.3c0,0.4-0.3,0.8-0.8,0.8h-16.3c-0.4,0-0.8-0.4-0.8-0.8V27.3z"/>
			<path style="clip-path:url(#SVGID_00000181791577419567066180000000066270322642406305_);" d="M141.4,27.3c0-0.4,0.3-0.8,0.8-0.8
				h11.4c4.8,0,8.7,3.8,8.7,8.6c0,3.7-2.4,6.7-5.9,8.1l5.5,10.2c0.3,0.5,0,1.2-0.7,1.2H157c-0.4,0-0.6-0.2-0.6-0.4l-5.3-10.6h-4.4
				v10.2c0,0.4-0.4,0.8-0.8,0.8h-3.7c-0.4,0-0.8-0.4-0.8-0.8V27.3z M153.2,39.2c2.1,0,4-1.8,4-4.1c0-2.1-1.8-3.9-4-3.9h-6.5v8H153.2
				z"/>
			<path style="clip-path:url(#SVGID_00000181791577419567066180000000066270322642406305_);" d="M164.4,53.4l12.4-26.9
				c0.1-0.2,0.3-0.4,0.7-0.4h0.4c0.4,0,0.6,0.2,0.7,0.4l12.3,26.9c0.2,0.5-0.1,1-0.7,1h-3.5c-0.6,0-0.9-0.2-1.2-0.8l-2-4.3h-11.9
				l-2,4.3c-0.2,0.4-0.5,0.8-1.2,0.8h-3.5C164.5,54.5,164.2,54,164.4,53.4 M181.7,44.9l-4-8.8h-0.1l-3.9,8.8H181.7z"/>
			<path style="clip-path:url(#SVGID_00000181791577419567066180000000066270322642406305_);fill:#F26924;" d="M32.2,19.5
				c-2.2,0-3.2,1.8-2.2,4l14.4,30.9l10.3,0c2.2,0,3.2-1.8,2.2-4L42.5,19.5L32.2,19.5z"/>
			<path style="clip-path:url(#SVGID_00000181791577419567066180000000066270322642406305_);fill:#FDB714;" d="M16.2,30.5l11.1,24
				l10.3,0c2.2,0,3.2-1.8,2.2-4l-11.1-24H18.4C16.2,26.5,15.2,28.3,16.2,30.5"/>
			<path style="clip-path:url(#SVGID_00000181791577419567066180000000066270322642406305_);fill:#00A176;" d="M3.3,39.5l7,15
				l10.3,0c2.2,0,3.2-1.8,2.2-4l-7-15l-10.3,0C3.2,35.5,2.3,37.3,3.3,39.5"/>
		</g>
	</g>
</g>
</svg>
